# xmcd
#
# Track frame offsets:
#	150
#	12127
#	23858
#	38366
#	49495
#	61238
#	72502
#	83715
#	107471
#	117938
#	128256
#	139827
#
# Disc length: 2038 seconds
#
# Revision: 1
# Processed by: cddbd v1.5.1PL0 Copyright (c) Steve Scherf et al.
# Submitted via: audiograbber 1.83.01
#
DISCID=9307f40c
DTITLE=George Hamilton IV - Folksy
DYEAR=1900
DGENRE=
TTITLE0=Go Go Round
TTITLE1=Colours
TTITLE2=Urge For Going
TTITLE3=Gentle on My Mind
TTITLE4=And You Wonder Why
TTITLE5=Darcy Farrow
TTITLE6=My Body's at Home (But My Heart's on the Road
TTITLE7=Ballad of the Yarmouth Castle
TTITLE8=Break My Mind
TTITLE9=Ruby, Don't Take Your Love to Town
TTITLE10=Man of Constant Sorrow
TTITLE11=I'll Be Gone
EXTD=
EXTT0=
EXTT1=
EXTT2=
EXTT3=
EXTT4=
EXTT5=
EXTT6=
EXTT7=
EXTT8=
EXTT9=
EXTT10=
EXTT11=
PLAYORDER=
